<mxfile host="app.diagrams.net" modified="2023-10-02T19:44:21.927Z" agent="Mozilla/5.0 (Windows NT 10.0; Win64; x64) AppleWebKit/537.36 (KHTML, like Gecko) Chrome/117.0.0.0 Safari/537.36" version="22.0.0" etag="V7-ziPWLnV7Dv7LMMipm" type="github">
  <diagram name="Page-1" id="Of8V0hgpy-LpMP8UM4_J">
    <mxGraphModel>
      <root>
        <mxCell id="0" />
        <mxCell id="1" parent="0" />
      </root>
    </mxGraphModel>
  </diagram>
</mxfile>
